<svg width="250" xmlns="http://www.w3.org/2000/svg" height="250" id="screenshot-51d457f2-f03e-8034-8006-09a04a8d8d18" viewBox="0 0 250 250" xmlns:xlink="http://www.w3.org/1999/xlink" fill="none" version="1.1"><g id="shape-51d457f2-f03e-8034-8006-09a04a8d8d18" rx="0" ry="0"><g id="shape-51d457f2-f03e-8034-8006-09a04a8d8d19"><g class="fills" id="fills-51d457f2-f03e-8034-8006-09a04a8d8d19"><rect rx="0" ry="0" x="0" y="0" transform="matrix(1.000000, 0.000000, 0.000000, 1.000000, 0.000000, 0.000000)" width="250" height="250" style="fill: rgb(255, 72, 147); fill-opacity: 0;"/></g></g><g id="shape-51d457f2-f03e-8034-8006-09a04a8d8d1a"><g class="fills" id="fills-51d457f2-f03e-8034-8006-09a04a8d8d1a"><ellipse cx="125" cy="125" rx="125" ry="125" transform="matrix(1.000000, 0.000000, 0.000000, 1.000000, 0.000000, 0.000000)" style="fill: rgb(255, 72, 147); fill-opacity: 0;"/></g></g><g id="shape-51d457f2-f03e-8034-8006-09a04a8d8d1b" rx="0" ry="0"><g id="shape-51d457f2-f03e-8034-8006-09a04a8d8d1c" rx="0" ry="0" style="display: none;"><g id="shape-51d457f2-f03e-8034-8006-09a04a8d8d1e"><g class="fills" id="fills-51d457f2-f03e-8034-8006-09a04a8d8d1e"><ellipse cx="92.22197697703723" cy="151.2031939778688" rx="45" ry="44.99999999999994" transform="matrix(0.866025, 0.500000, -0.500000, 0.866025, 87.956999, -25.853602)" style="fill: rgb(233, 59, 130); fill-opacity: 1;"/></g></g><g id="shape-51d457f2-f03e-8034-8006-09a04a8d8d1f"><g class="fills" id="fills-51d457f2-f03e-8034-8006-09a04a8d8d1f"><path d="M86.96012595025832,95.76442841485016 h116.00000000000011 a22.999999999999886,22.999999999999886 0 0 1 22.999999999999886,22.999999999999886 v0 a0,0 0 0 1 0,0 h-139 a0,0 0 0 1 0,0 v-22.999999999999886 a0,0 0 0 1 0,0 z" x="86.96012595025832" y="95.76442841485016" transform="matrix(0.500000, -0.866025, 0.866025, 0.500000, -14.663657, 189.130658)" width="139" height="22.999999999999886" style="fill: rgb(233, 59, 130); fill-opacity: 1;"/></g></g><g id="shape-51d457f2-f03e-8034-8006-09a04a8d8d20"><g class="fills" id="fills-51d457f2-f03e-8034-8006-09a04a8d8d20"><path d="M186.18500000000017,61.101212042215025 h37.13000000000011 a0,0 0 0 1 0,0 v11.934999999999718 a18.565000000000055,18.565000000000055 0 0 1 -18.565000000000055,18.565000000000055 h0 a18.565000000000055,18.565000000000055 0 0 1 -18.565000000000055,-18.565000000000055 v-11.934999999999718 a0,0 0 0 1 0,0 z" x="186.18500000000017" y="61.101212042215025" transform="matrix(0.501003, -0.865445, 0.865445, 0.501003, 36.091804, 215.298983)" width="37.13000000000011" height="30.499999999999773" style="fill: rgb(233, 59, 130); fill-opacity: 1;"/></g></g></g><g id="shape-51d457f2-f03e-8034-8006-09a04a8d8d1d" rx="0" ry="0"><g id="shape-51d457f2-f03e-8034-8006-09a04a8d8d21"><g class="fills" id="fills-51d457f2-f03e-8034-8006-09a04a8d8d21"><ellipse cx="88.22197697703723" cy="149.2031939778688" rx="45" ry="44.99999999999994" transform="matrix(0.866025, 0.500000, -0.500000, 0.866025, 86.421101, -24.121551)" style="fill: rgb(255, 255, 255); fill-opacity: 1;"/></g></g><g id="shape-51d457f2-f03e-8034-8006-09a04a8d8d22"><g class="fills" id="fills-51d457f2-f03e-8034-8006-09a04a8d8d22"><path d="M82.96012595025832,93.76442841485016 h116.00000000000011 a22.999999999999886,22.999999999999886 0 0 1 22.999999999999886,22.999999999999886 v0 a0,0 0 0 1 0,0 h-139 a0,0 0 0 1 0,0 v-22.999999999999886 a0,0 0 0 1 0,0 z" x="82.96012595025832" y="93.76442841485016" transform="matrix(0.500000, -0.866025, 0.866025, 0.500000, -14.931606, 184.666556)" width="139" height="22.999999999999886" style="fill: rgb(255, 255, 255); fill-opacity: 1;"/></g></g><g id="shape-51d457f2-f03e-8034-8006-09a04a8d8d23"><g class="fills" id="fills-51d457f2-f03e-8034-8006-09a04a8d8d23"><path d="M182.18500000000017,59.101212042215025 h37.13000000000011 a0,0 0 0 1 0,0 v11.934999999999718 a18.565000000000055,18.565000000000055 0 0 1 -18.565000000000055,18.565000000000055 h0 a18.565000000000055,18.565000000000055 0 0 1 -18.565000000000055,-18.565000000000055 v-11.934999999999718 a0,0 0 0 1 0,0 z" x="182.18500000000017" y="59.101212042215025" transform="matrix(0.501003, -0.865445, 0.865445, 0.501003, 35.826708, 210.839207)" width="37.13000000000011" height="30.499999999999773" style="fill: rgb(255, 255, 255); fill-opacity: 1;"/></g></g></g></g></g></svg>