<svg width="432" xmlns="http://www.w3.org/2000/svg" height="432" id="screenshot-3a1b5b62-d25a-8038-8006-b225be783b97" viewBox="0 0 432 432" xmlns:xlink="http://www.w3.org/1999/xlink" fill="none" version="1.1"><g id="shape-3a1b5b62-d25a-8038-8006-b225be783b97" rx="0" ry="0"><g id="shape-3a1b5b62-d25a-8038-8006-b225f21dcc71"><g class="fills" id="fills-3a1b5b62-d25a-8038-8006-b225f21dcc71"><rect rx="75" ry="75" x="2.2737367544323206e-13" y="0" transform="matrix(1.000000, 0.000000, 0.000000, 1.000000, 0.000000, 0.000000)" width="431.9999999999998" height="432" style="fill: rgb(255, 72, 147); fill-opacity: 1;"/></g></g><g id="shape-3a1b5b62-d25a-8038-8006-b225f21dcc72"><g class="fills" id="fills-3a1b5b62-d25a-8038-8006-b225f21dcc72"><ellipse cx="216.0000000000001" cy="216" rx="215.9999999999999" ry="216" transform="matrix(1.000000, 0.000000, 0.000000, 1.000000, 0.000000, 0.000000)" style="fill: rgb(255, 72, 147); fill-opacity: 0;"/></g></g><g id="shape-3a1b5b62-d25a-8038-8006-b2262b9272c7" rx="0" ry="0"><g id="shape-3a1b5b62-d25a-8038-8006-b225be783b98"><g class="fills" id="fills-3a1b5b62-d25a-8038-8006-b225be783b98"><rect rx="0" ry="0" x="71.5" y="71.5" transform="matrix(1.000000, 0.000000, 0.000000, 1.000000, 0.000000, 0.000000)" width="289" height="288.42315369261473" style="fill: rgb(255, 72, 147); fill-opacity: 0;"/></g></g><g id="shape-3a1b5b62-d25a-8038-8006-b225be783b99"><g class="fills" id="fills-3a1b5b62-d25a-8038-8006-b225be783b99"><ellipse cx="216" cy="216.28842315369263" rx="144.5" ry="144.21157684630737" transform="matrix(1.000000, 0.000000, 0.000000, 1.000000, 0.000000, 0.000000)" style="fill: rgb(255, 72, 147); fill-opacity: 0;"/></g></g><g id="shape-3a1b5b62-d25a-8038-8006-b225be783b9a" rx="0" ry="0"><g id="shape-3a1b5b62-d25a-8038-8006-b225be78755d" rx="0" ry="0" style="display: none;"><g id="shape-3a1b5b62-d25a-8038-8006-b225be787561"><g class="fills" id="fills-3a1b5b62-d25a-8038-8006-b225be787561"><ellipse cx="178.10860538545475" cy="245.94200822197234" rx="51.99406135556765" ry="51.94214520733277" transform="matrix(0.866457, 0.499251, -0.500749, 0.865592, 146.940401, -55.864384)" style="fill: rgb(233, 59, 130); fill-opacity: 1;"/></g></g><g id="shape-3a1b5b62-d25a-8038-8006-b225be787562"><g class="fills" id="fills-3a1b5b62-d25a-8038-8006-b225be787562"><path d="M172.14614800050674,181.96280765447534 h133.86877272536015 a26.5747424706235,26.5747424706235 0 0 1 26.5747424706235,26.5747424706235 v3.552713678800501e-15 a0,0 0 0 1 0,0 h-160.44351519598365 a0,0 0 0 1 0,0 v-26.574742470623505 a0,0 0 0 1 0,0 z" x="172.14614800050674" y="181.96280765447534" transform="matrix(0.500749, -0.865592, 0.866457, 0.499251, -43.181152, 316.219056)" width="160.44351519598365" height="26.574742470623505" style="fill: rgb(233, 59, 130); fill-opacity: 1;"/></g></g><g id="shape-3a1b5b62-d25a-8038-8006-b225be787563"><g class="fills" id="fills-3a1b5b62-d25a-8038-8006-b225be787563"><path d="M286.7619363935667,141.96565509454615 h42.858127212867146 a0,0 0 0 1 0,0 v13.811285128227524 a21.429063606433573,21.429063606433573 0 0 1 -21.429063606433573,21.429063606433573 h0 a21.429063606433573,21.429063606433573 0 0 1 -21.429063606433573,-21.429063606433573 v-13.811285128227524 a0,0 0 0 1 0,0 z" x="286.7619363935667" y="141.96565509454615" transform="matrix(0.501753, -0.865011, 0.865879, 0.500254, 15.373218, 346.341037)" width="42.858127212867146" height="35.2403487346611" style="fill: rgb(233, 59, 130); fill-opacity: 1;"/></g></g></g><g id="shape-3a1b5b62-d25a-8038-8006-b225be78755e" rx="0" ry="0"><g id="shape-3a1b5b62-d25a-8038-8006-b225be787564"><g class="fills" id="fills-3a1b5b62-d25a-8038-8006-b225be787564"><ellipse cx="173.7726415048664" cy="243.63462299243156" rx="51.99406135556765" ry="51.94214520733283" transform="matrix(0.866457, 0.499251, -0.500749, 0.865592, 145.205943, -54.009781)" style="fill: rgb(255, 255, 255); fill-opacity: 1;"/></g></g><g id="shape-3a1b5b62-d25a-8038-8006-b225be787565"><g class="fills" id="fills-3a1b5b62-d25a-8038-8006-b225be787565"><path d="M167.52214800050677,179.6554224249345 h133.8687727253602 a26.5747424706235,26.5747424706235 0 0 1 26.5747424706235,26.5747424706235 v3.552713678800501e-15 a0,0 0 0 1 0,0 h-160.4435151959837 a0,0 0 0 1 0,0 v-26.574742470623505 a0,0 0 0 1 0,0 z" x="167.52214800050677" y="179.6554224249345" transform="matrix(0.500749, -0.865592, 0.866457, 0.499251, -43.490436, 311.061136)" width="160.4435151959837" height="26.574742470623505" style="fill: rgb(255, 255, 255); fill-opacity: 1;"/></g></g><g id="shape-3a1b5b62-d25a-8038-8006-b225be787566"><g class="fills" id="fills-3a1b5b62-d25a-8038-8006-b225be787566"><path d="M281.6506161439092,138.44893243885667 h42.706079575429214 a0,0 0 0 1 0,0 v14.466687026629387 a21.353039787714607,21.353039787714607 0 0 1 -21.353039787714607,21.353039787714607 h0 a21.353039787714607,21.353039787714607 0 0 1 -21.353039787714607,-21.353039787714607 v-14.466687026629387 a0,0 0 0 1 0,0 z" x="281.6506161439092" y="138.44893243885667" transform="matrix(0.477895, -0.878417, 0.879216, 0.476423, 20.726422, 348.029421)" width="42.706079575429214" height="35.819726814343994" style="fill: rgb(255, 255, 255); fill-opacity: 1;"/></g></g></g><g id="shape-3a1b5b62-d25a-8038-8006-b225be78755f" style="display: none;"><g class="fills" id="fills-3a1b5b62-d25a-8038-8006-b225be78755f"><path d="M267.4260434838386,146.59545941972635 h39.55147410694617 a0.8,0.8 0 0 1 0.8,0.8 v2.088687646317976 a0,0 0 0 1 0,0 h-40.35147410694617 a0,0 0 0 1 0,0 v-2.888687646317976 a0,0 0 0 1 0,0 z" x="267.4260434838386" y="146.59545941972635" transform="matrix(0.477895, -0.878417, 0.879216, 0.476423, 19.999225, 330.144519)" width="40.35147410694617" height="2.888687646317976" style="fill: rgb(255, 255, 255); fill-opacity: 1;"/></g></g><g id="shape-3a1b5b62-d25a-8038-8006-b225be787560" style="display: none;"><g class="fills" id="fills-3a1b5b62-d25a-8038-8006-b225be787560"><rect rx="0" ry="0" x="188.10299367876706" y="219.01170145788205" transform="matrix(0.500749, -0.865592, 0.866457, 0.499251, -102.636787, 302.387774)" width="45.01652584635565" height="41.59524908445462" style="fill: rgb(255, 255, 255); fill-opacity: 1;"/></g></g></g></g></g></svg>